<svg width="25" height="24" viewBox="0 0 25 24" fill="none" xmlns="http://www.w3.org/2000/svg">
<g clip-path="url(#clip0_123_871)">
<path d="M19 23.9999H13.534C11.6609 24.0326 9.8014 23.6751 8.07393 22.9502C6.34645 22.2252 4.78878 21.1486 3.50001 19.7889C2.40952 18.5968 1.58326 17.1876 1.0754 15.6538C0.567527 14.1201 0.389508 12.4963 0.553007 10.8889C0.801095 8.27354 1.89891 5.8114 3.67859 3.87894C5.45827 1.94649 7.82188 0.650064 10.408 0.187904C12.107 -0.127226 13.8548 -0.0601825 15.5246 0.38417C17.1944 0.828523 18.7444 1.63904 20.062 2.7569C21.4569 3.92951 22.5774 5.39408 23.3442 7.04719C24.1111 8.70029 24.5056 10.5016 24.5 12.3239V18.4999C24.4982 19.958 23.9181 21.3559 22.8871 22.3869C21.856 23.418 20.4581 23.9981 19 23.9999ZM12.53 2.9999C10.2845 2.99796 8.11901 3.83356 6.45684 5.34335C4.79467 6.85313 3.75533 8.92856 3.54201 11.1639C3.41966 12.3563 3.55062 13.5611 3.92631 14.6993C4.30199 15.8376 4.91392 16.8836 5.72201 17.7689C6.72914 18.8194 7.94365 19.6491 9.28848 20.2053C10.6333 20.7615 12.0791 21.0321 13.534 20.9999H19C19.6631 20.9999 20.2989 20.7365 20.7678 20.2677C21.2366 19.7988 21.5 19.1629 21.5 18.4999V12.3239C21.5046 10.9397 21.2056 9.57135 20.624 8.31526C20.0425 7.05916 19.1925 5.94589 18.134 5.0539C16.5694 3.72505 14.5827 2.99687 12.53 2.9999ZM12.5 5.9999C12.1022 5.9999 11.7207 6.15794 11.4393 6.43924C11.158 6.72055 11 7.10208 11 7.4999C11 7.89773 11.158 8.27926 11.4393 8.56056C11.7207 8.84187 12.1022 8.9999 12.5 8.9999C12.8978 8.9999 13.2794 8.84187 13.5607 8.56056C13.842 8.27926 14 7.89773 14 7.4999C14 7.10208 13.842 6.72055 13.5607 6.43924C13.2794 6.15794 12.8978 5.9999 12.5 5.9999ZM13 18.9999C12.6022 18.9999 12.2207 18.8419 11.9393 18.5606C11.658 18.2793 11.5 17.8977 11.5 17.4999V12.9999H11C10.6022 12.9999 10.2207 12.8419 9.93935 12.5606C9.65804 12.2793 9.50001 11.8977 9.50001 11.4999C9.50001 11.1021 9.65804 10.7205 9.93935 10.4392C10.2207 10.1579 10.6022 9.9999 11 9.9999H12C12.663 9.9999 13.2989 10.2633 13.7678 10.7321C14.2366 11.201 14.5 11.8369 14.5 12.4999V17.4999C14.5 17.8977 14.342 18.2793 14.0607 18.5606C13.7794 18.8419 13.3978 18.9999 13 18.9999Z" fill="black"/>
</g>
<defs>
<clipPath id="clip0_123_871">
<rect width="24" height="24" fill="white" transform="translate(0.5)"/>
</clipPath>
</defs>
</svg>
