<svg width="211" height="27" viewBox="0 0 211 27" fill="none" xmlns="http://www.w3.org/2000/svg">
<path d="M16.4466 10.6921L25.8079 3.26674C26.7737 2.49934 27.3078 2.16797 28.3412 2.16797H31.4762C32.5422 2.16797 33.3096 2.73479 33.3096 3.63517C33.3096 4.2347 32.9979 4.75356 32.5095 5.13508L23.2747 12.3686C22.904 12.6629 22.7754 12.9028 22.7754 13.1687C22.7754 13.4347 22.8779 13.6636 23.2747 13.9688L33.3402 21.8019C33.8285 22.1834 34.1403 22.735 34.1403 23.3345C34.1403 24.2676 33.3729 24.8344 32.3068 24.8344H28.7402C27.7068 24.8344 27.1705 24.5052 26.2069 23.7335L16.3965 15.9135C14.7178 14.5771 14.4409 13.8685 14.4409 13.2298C14.4409 12.6586 14.8006 11.9958 16.4466 10.6921Z" fill="white"/>
<path d="M12.5661 22.8328C12.5661 24.0995 12.0668 24.832 10.8002 24.832H1.80076C0.534123 24.832 0 24.0319 0 22.7652V4.16685C0 2.90022 0.499242 2.16553 1.489 2.16553H10.4884C12.0319 2.16553 12.5661 2.96562 12.5661 4.23226V22.8328Z" fill="#FF6000"/>
<path d="M60.4192 19.7003C61.6531 19.7003 62.4184 20.1995 62.4184 21.4662V23.0664C62.4184 24.333 61.651 24.8322 60.4192 24.8322H41.4524C39.0521 24.8322 37.0181 23.7989 37.0181 21.0999V5.90029C37.0181 3.16645 39.0521 2.16797 41.4524 2.16797H60.0181C61.252 2.16797 62.0172 2.66721 62.0172 3.93385V5.40105C62.0172 6.63498 61.2498 7.16693 60.0181 7.16693H44.6855C43.8527 7.16693 43.3861 7.46778 43.3861 8.26787V9.90077C43.3861 10.7336 43.8527 11.0671 44.6855 11.0671H59.1177C60.3843 11.0671 61.119 11.5664 61.119 12.833V14.0342C61.119 15.2682 60.3865 15.8001 59.1177 15.8001H44.6855C43.8527 15.8001 43.3861 16.101 43.3861 16.8989V18.5318C43.3861 19.3646 43.8527 19.6981 44.6855 19.6981H60.4192V19.7003Z" fill="white"/>
<path d="M90.8511 4.09927C91.4833 2.79993 92.218 2.16553 93.9839 2.16553H99.2161C101.15 2.16553 102.316 3.06591 102.316 4.99965V22.8328C102.316 24.0995 101.817 24.832 100.55 24.832H97.5505C96.2839 24.832 95.717 24.0319 95.717 22.7979V9.56695C95.717 8.96742 95.4511 8.76685 95.1175 8.76685C94.7185 8.76685 94.4853 9.03283 94.1844 9.59965L87.352 22.9985C86.7525 24.1322 86.2511 24.832 85.0847 24.832H82.5187C81.3524 24.832 80.9512 24.1322 80.3844 22.9985L73.7177 9.59965C73.4168 9.03283 73.1836 8.76685 72.7846 8.76685C72.4511 8.76685 72.1851 8.96742 72.1851 9.56695V22.8001C72.1851 24.0995 71.6858 24.8342 70.4192 24.8342H67.3867C66.1201 24.8342 65.5859 24.0341 65.5859 22.7674V4.99965C65.5859 3.06591 66.7523 2.16553 68.686 2.16553H74.0185C75.7844 2.16553 76.5191 2.79993 77.1513 4.09927L83.3167 16.5651C83.6175 17.1319 83.7832 17.2649 84.084 17.2649C84.3849 17.2649 84.5179 17.1319 84.7839 16.5978L90.8511 4.09709V4.09927Z" fill="white"/>
<path d="M152.437 25C139.469 25 137.603 23.7661 137.603 13.7333V13.2667C137.603 3.19905 139.469 2 152.437 2H153.47C166.435 2 168.303 3.19905 168.303 13.2667V13.7333C168.303 23.8009 166.437 25 153.47 25H152.437ZM153.237 19.7678C161.103 19.7678 161.504 19.2685 161.504 13.5676V13.4019C161.504 7.60284 161.103 7.1363 153.237 7.1363H152.67C144.804 7.1363 144.403 7.60284 144.403 13.4019V13.5676C144.403 19.2663 144.804 19.7678 152.67 19.7678H153.237Z" fill="white"/>
<path d="M178.705 13.7989C178.705 19.1314 179.271 19.4977 186.836 19.4977H198.803C200.037 19.4977 200.804 19.9969 200.804 21.2635V22.2642C200.804 24.4988 199.337 24.998 189.57 24.998H187.137C173.839 24.998 171.905 23.4654 171.905 13.8992V13.3651C171.905 3.56553 174.039 1.99805 187.137 1.99805H189.57C199.337 1.99805 200.804 2.3643 200.804 4.73189V5.59738C200.804 6.86402 200.037 7.36326 198.803 7.36326H186.836C179.271 7.36326 178.705 7.8625 178.705 13.4632V13.7967V13.7989Z" fill="white"/>
<path d="M122.018 13.6004C126.284 13.6004 127.252 13.1665 127.252 10.9668V9.7329C127.252 7.70105 126.618 7.16693 121.852 7.16693H114.952C114.119 7.16693 113.653 7.46778 113.653 8.26569V22.8331C113.653 24.067 113.151 24.8322 111.887 24.8322H108.754C107.488 24.8322 106.988 24.0648 106.988 22.8331V5.90029C106.988 3.16645 109.02 2.16797 111.42 2.16797H124.42C131.087 2.16797 134.019 3.30162 134.019 8.73441V9.93347C134.019 12.5997 132.72 13.801 130.919 14.6665C130.586 14.8321 130.352 14.9673 130.352 15.266C130.352 15.6322 130.618 15.7325 130.852 15.8001C133.019 16.4999 134.052 17.8995 134.052 21.8324V22.8331C134.052 24.067 133.553 24.8322 132.286 24.8322H129.153C127.887 24.8322 127.387 24.0648 127.387 22.8331V22.4668C127.387 18.7672 127.021 18.5339 119.489 18.5339H117.902C116.668 18.5339 115.901 18.002 115.901 16.7681V15.3684C115.901 14.1018 116.668 13.6026 117.902 13.6026H122.022L122.018 13.6004Z" fill="white"/>
<path d="M207.046 7.37391C204.244 7.37391 203.697 7.02945 203.697 4.80139V4.66187C203.697 2.43381 204.244 2.08936 207.046 2.08936H207.251C210.052 2.08936 210.599 2.43381 210.599 4.66187V4.80139C210.599 7.02945 210.052 7.37391 207.251 7.37391H207.046ZM207.251 6.78746C209.645 6.78746 209.924 6.53239 209.924 4.80139V4.66187C209.924 2.93087 209.645 2.6758 207.251 2.6758H207.046C204.652 2.6758 204.373 2.93087 204.373 4.66187V4.80139C204.373 6.53239 204.654 6.78746 207.046 6.78746H207.251ZM207.709 3.17068C208.753 3.17068 209.008 3.37561 209.008 4.13864V4.18879C209.008 4.5703 208.906 4.74907 208.613 4.90168C208.563 4.92784 208.524 4.95182 208.524 5.00414C208.524 5.05646 208.563 5.08045 208.6 5.09353C208.906 5.19599 209.008 5.36168 209.008 5.85656V5.99609C209.008 6.16177 208.932 6.27514 208.753 6.27514H208.295C208.116 6.27514 208.053 6.16177 208.053 5.99609V5.94594C208.053 5.52518 207.964 5.4358 207.201 5.4358H206.614C206.488 5.4358 206.422 5.47504 206.422 5.58841V5.99609C206.422 6.16177 206.359 6.27514 206.167 6.27514H205.683C205.505 6.27514 205.428 6.16177 205.428 5.99609V3.70699C205.428 3.31239 205.72 3.17286 206.052 3.17286H207.706L207.709 3.17068ZM207.364 4.69893C207.938 4.69893 208.04 4.64879 208.04 4.33049V4.28035C208.04 3.96206 207.938 3.89883 207.364 3.89883H206.612C206.486 3.89883 206.42 3.93808 206.42 4.05144V4.53542C206.42 4.65097 206.483 4.70111 206.612 4.70111H207.364V4.69893Z" fill="white"/>
</svg>
