<svg width="24" height="24" viewBox="0 0 24 24" fill="none" xmlns="http://www.w3.org/2000/svg">
<g clip-path="url(#clip0_201_1610)">
<path d="M9.5 24H1.5C1.10218 24 0.720644 23.842 0.43934 23.5607C0.158035 23.2794 0 22.8978 0 22.5C0 22.1022 0.158035 21.7206 0.43934 21.4393C0.720644 21.158 1.10218 21 1.5 21H9.5C9.89782 21 10.2794 21.158 10.5607 21.4393C10.842 21.7206 11 22.1022 11 22.5C11 22.8978 10.842 23.2794 10.5607 23.5607C10.2794 23.842 9.89782 24 9.5 24Z" fill="black"/>
<path d="M7.5 18.9995H1.5C1.10218 18.9995 0.720644 18.8415 0.43934 18.5602C0.158035 18.2789 0 17.8973 0 17.4995C0 17.1017 0.158035 16.7202 0.43934 16.4389C0.720644 16.1575 1.10218 15.9995 1.5 15.9995H7.5C7.89782 15.9995 8.27936 16.1575 8.56066 16.4389C8.84196 16.7202 9 17.1017 9 17.4995C9 17.8973 8.84196 18.2789 8.56066 18.5602C8.27936 18.8415 7.89782 18.9995 7.5 18.9995Z" fill="black"/>
<path d="M5.5 14.0005H1.5C1.10218 14.0005 0.720644 13.8425 0.43934 13.5611C0.158035 13.2798 0 12.8983 0 12.5005C0 12.1027 0.158035 11.7211 0.43934 11.4398C0.720644 11.1585 1.10218 11.0005 1.5 11.0005H5.5C5.89783 11.0005 6.27936 11.1585 6.56066 11.4398C6.84197 11.7211 7 12.1027 7 12.5005C7 12.8983 6.84197 13.2798 6.56066 13.5611C6.27936 13.8425 5.89783 14.0005 5.5 14.0005Z" fill="black"/>
<path d="M14.4999 23.7212C14.1327 23.7216 13.7781 23.5872 13.5033 23.3436C13.2285 23.1 13.0526 22.764 13.009 22.3994C12.9653 22.0348 13.057 21.6668 13.2665 21.3653C13.4761 21.0637 13.7889 20.8495 14.1459 20.7632C15.6251 20.4006 16.9884 19.6694 18.1088 18.6378C19.2292 17.6062 20.0702 16.3078 20.5534 14.8635C21.0367 13.4192 21.1465 11.8761 20.8726 10.378C20.5986 8.87983 19.9499 7.47541 18.9869 6.29559C18.0238 5.11576 16.7778 4.19894 15.3648 3.63054C13.9519 3.06215 12.418 2.86068 10.9063 3.04492C9.39446 3.22917 7.95391 3.79312 6.71885 4.68423C5.48378 5.57533 4.49439 6.76459 3.84288 8.14118C3.66913 8.49494 3.36312 8.7661 2.99103 8.89603C2.61893 9.02597 2.21065 9.00423 1.85446 8.83553C1.49826 8.66682 1.22277 8.36471 1.08756 7.9945C0.952344 7.62429 0.968266 7.21574 1.13188 6.85718C2.00004 5.02222 3.31868 3.43695 4.96486 2.24916C6.61105 1.06136 8.53118 0.309708 10.5463 0.064276C12.5613 -0.181156 14.6058 0.0876221 16.4889 0.845553C18.3721 1.60348 20.0327 2.82589 21.3159 4.39882C22.5992 5.97174 23.4632 7.84397 23.8276 9.84097C24.192 11.838 24.0448 13.8947 23.3998 15.8195C22.7547 17.7442 21.6328 19.4743 20.1387 20.8485C18.6445 22.2227 16.8268 23.1961 14.8549 23.6782C14.7387 23.7065 14.6195 23.7209 14.4999 23.7212Z" fill="black"/>
<path d="M12.5002 6C12.1024 6 11.7208 6.15803 11.4395 6.43934C11.1582 6.72064 11.0002 7.10217 11.0002 7.5V11.793C11.0003 12.3234 11.2111 12.832 11.5862 13.207L13.3792 15C13.6621 15.2732 14.041 15.4244 14.4343 15.421C14.8276 15.4176 15.2038 15.2598 15.4819 14.9817C15.76 14.7036 15.9178 14.3274 15.9212 13.9341C15.9246 13.5408 15.7734 13.1619 15.5002 12.879L14.0002 11.379V7.5C14.0002 7.10217 13.8421 6.72064 13.5608 6.43934C13.2795 6.15803 12.898 6 12.5002 6Z" fill="black"/>
</g>
<defs>
<clipPath id="clip0_201_1610">
<rect width="24" height="24" fill="white"/>
</clipPath>
</defs>
</svg>
