<svg width="24" height="24" viewBox="0 0 24 24" fill="none" xmlns="http://www.w3.org/2000/svg">
<g clip-path="url(#clip0_201_1588)">
<path d="M14.5001 0H9.50006C8.04186 0.00158817 6.64383 0.581561 5.61273 1.61267C4.58162 2.64377 4.00165 4.0418 4.00006 5.5V18.5C4.00165 19.9582 4.58162 21.3562 5.61273 22.3873C6.64383 23.4184 8.04186 23.9984 9.50006 24H14.5001C15.9583 23.9984 17.3563 23.4184 18.3874 22.3873C19.4185 21.3562 19.9985 19.9582 20.0001 18.5V5.5C19.9985 4.0418 19.4185 2.64377 18.3874 1.61267C17.3563 0.581561 15.9583 0.00158817 14.5001 0V0ZM9.50006 3H14.5001C15.1631 3 15.799 3.26339 16.2678 3.73223C16.7367 4.20107 17.0001 4.83696 17.0001 5.5V18H7.00006V5.5C7.00006 4.83696 7.26345 4.20107 7.73229 3.73223C8.20114 3.26339 8.83702 3 9.50006 3ZM12.0001 22C11.7348 22 11.4805 21.8946 11.293 21.7071C11.1054 21.5196 11.0001 21.2652 11.0001 21C11.0001 20.7348 11.1054 20.4804 11.293 20.2929C11.4805 20.1054 11.7348 20 12.0001 20C12.2653 20 12.5196 20.1054 12.7072 20.2929C12.8947 20.4804 13.0001 20.7348 13.0001 21C13.0001 21.2652 12.8947 21.5196 12.7072 21.7071C12.5196 21.8946 12.2653 22 12.0001 22Z" fill="#202541"/>
</g>
<defs>
<clipPath id="clip0_201_1588">
<rect width="24" height="24" fill="white"/>
</clipPath>
</defs>
</svg>
