<svg width="20" height="20" viewBox="0 0 20 20" fill="none" xmlns="http://www.w3.org/2000/svg">
<path d="M7.4974 0.833496V2.50016H12.4974V0.833496H14.1641V2.50016H17.4974C17.9576 2.50016 18.3307 2.87326 18.3307 3.3335V16.6668C18.3307 17.1271 17.9576 17.5002 17.4974 17.5002H2.4974C2.03716 17.5002 1.66406 17.1271 1.66406 16.6668V3.3335C1.66406 2.87326 2.03716 2.50016 2.4974 2.50016H5.83073V0.833496H7.4974ZM16.6641 9.16683H3.33073V15.8335H16.6641V9.16683ZM6.66406 10.8335V12.5002H4.9974V10.8335H6.66406ZM10.8307 10.8335V12.5002H9.16406V10.8335H10.8307ZM14.9974 10.8335V12.5002H13.3307V10.8335H14.9974ZM5.83073 4.16683H3.33073V7.50016H16.6641V4.16683H14.1641V5.8335H12.4974V4.16683H7.4974V5.8335H5.83073V4.16683Z" fill="#FF6000"/>
</svg>