<svg width="24" height="24" viewBox="0 0 24 24" fill="none" xmlns="http://www.w3.org/2000/svg">
<path d="M24 24V15.21C24 10.89 23.07 7.58997 18.03 7.58997C15.6 7.58997 13.98 8.90997 13.32 10.17H13.26V7.97997H8.48999V24H13.47V16.05C13.47 13.95 13.86 11.94 16.44 11.94C18.99 11.94 19.02 14.31 19.02 16.17V23.97H24V24Z" fill="white"/>
<path d="M0.390015 7.97998H5.37001V24H0.390015V7.97998Z" fill="white"/>
<path d="M2.88 0C1.29 0 0 1.29 0 2.88C0 4.47 1.29 5.79 2.88 5.79C4.47 5.79 5.76 4.47 5.76 2.88C5.76 1.29 4.47 0 2.88 0Z" fill="white"/>
</svg>
