<svg width="526" height="133" viewBox="0 0 526 133" fill="none" xmlns="http://www.w3.org/2000/svg">
<path d="M103.861 70.9333V34.5029C103.861 32.5754 102.898 31.6116 101.356 31.6116C100.2 31.6116 99.2365 31.9971 97.5023 33.1536L39.3092 70.3551C37.575 71.5116 36.8042 72.6681 36.8042 74.0174C36.8042 75.5594 37.9604 76.7159 39.8873 76.7159H97.1169C102.32 76.7159 103.861 74.9812 103.861 70.9333ZM9.24923 55.7058L85.3626 6.16812C92.4923 1.54202 97.5023 0 105.403 0H123.901C134.499 0 140.858 5.3971 140.858 14.6493V70.3551C140.858 75.3667 143.556 76.7159 147.988 76.7159H151.071C158.2 76.7159 162.632 79.6072 162.632 86.9319V94.642C162.632 101.774 158.2 104.858 151.071 104.858H148.18C142.785 104.858 140.858 106.593 140.858 111.026V119.507C140.858 126.832 137.968 131.072 130.645 131.072H114.266C106.944 131.072 103.861 126.446 103.861 119.122V110.833C103.861 105.822 101.934 104.858 97.1169 104.858H16.1861C5.78077 104.858 0 99.8464 0 91.1725V71.7043C0 64.5725 3.85384 59.1754 9.24923 55.7058Z" fill="#FF6000"/>
<path d="M467.229 70.9333V34.5029C467.229 32.5754 466.265 31.6116 464.724 31.6116C463.568 31.6116 462.604 31.9971 460.87 33.1536L402.677 70.3551C400.943 71.5116 400.172 72.6681 400.172 74.0174C400.172 75.5594 401.328 76.7159 403.255 76.7159H460.485C465.687 76.7159 467.229 74.9812 467.229 70.9333ZM372.617 55.7058L448.73 6.16812C455.86 1.54202 460.87 0 468.77 0H487.269C497.867 0 504.226 5.3971 504.226 14.6493V70.3551C504.226 75.3667 506.923 76.7159 511.355 76.7159H514.438C521.568 76.7159 526 79.6072 526 86.9319V94.642C526 101.774 521.568 104.858 514.438 104.858H511.548C506.153 104.858 504.226 106.593 504.226 111.026V119.507C504.226 126.832 501.335 131.072 494.013 131.072H477.634C470.312 131.072 467.229 126.446 467.229 119.122V110.833C467.229 105.822 465.302 104.858 460.485 104.858H379.554C369.149 104.858 363.368 99.8464 363.368 91.1725V71.7043C363.368 64.5725 367.222 59.1754 372.617 55.7058Z" fill="#FF6000"/>
<path d="M261.004 101.967H264.087C303.396 101.967 306.286 99.0754 306.286 66.8855V65.729C306.286 33.3464 303.396 30.8406 264.087 30.8406H261.004C221.695 30.8406 218.804 33.3464 218.804 65.729V66.8855C218.804 99.0754 221.695 101.967 261.004 101.967ZM265.05 133H260.04C191.442 133 182 125.097 182 67.8493V65.1507C182 7.9029 191.442 0 260.04 0H265.05C333.649 0 343.091 7.9029 343.091 65.1507V67.8493C343.091 125.097 333.649 133 265.05 133Z" fill="#EEEEEE"/>
<path d="M316.591 67.9806L310.016 73.2232C309.337 73.7638 308.962 74 308.236 74H306.034C305.285 74 304.745 73.5993 304.745 72.9643C304.745 72.541 304.963 72.1743 305.308 71.906L311.797 66.8013C312.058 66.5934 312.148 66.4252 312.148 66.2362C312.148 66.0472 312.075 65.8866 311.797 65.6712L304.725 60.1413C304.38 59.8729 304.162 59.4817 304.162 59.0584C304.162 58.3988 304.7 58 305.451 58H307.956C308.682 58 309.058 58.2325 309.735 58.7768L316.627 64.2972C317.806 65.2403 318 65.7392 318 66.1909C318 66.5953 317.748 67.0621 316.591 67.9825" fill="#5F5F5F"/>
<path d="M297.56 67.9806L290.984 73.2232C290.305 73.7638 289.931 74 289.205 74H287.002C286.254 74 285.714 73.5993 285.714 72.9643C285.714 72.541 285.932 72.1743 286.276 71.906L292.766 66.8013C293.027 66.5934 293.117 66.4252 293.117 66.2362C293.117 66.0472 293.044 65.8866 292.766 65.6712L285.693 60.1413C285.349 59.8729 285.131 59.4817 285.131 59.0584C285.131 58.3988 285.669 58 286.419 58H288.925C289.651 58 290.027 58.2325 290.704 58.7768L297.596 64.2972C298.775 65.2403 298.969 65.7392 298.969 66.1909C298.969 66.5953 298.717 67.0621 297.56 67.9825" fill="#5F5F5F"/>
<path d="M278.537 67.9806L271.961 73.2232C271.282 73.7638 270.908 74 270.182 74H267.979C267.23 74 266.691 73.5993 266.691 72.9643C266.691 72.541 266.909 72.1743 267.253 71.906L273.742 66.8013C274.004 66.5934 274.094 66.4252 274.094 66.2362C274.094 66.0472 274.02 65.8866 273.742 65.6712L266.67 60.1413C266.326 59.8729 266.107 59.4817 266.107 59.0584C266.107 58.3988 266.645 58 267.396 58H269.901C270.627 58 271.003 58.2325 271.681 58.7768L278.572 64.2972C279.752 65.2403 279.945 65.7392 279.945 66.1909C279.945 66.5953 279.693 67.0621 278.537 67.9825" fill="#5F5F5F"/>
<path d="M259.513 67.9806L252.937 73.2232C252.258 73.7638 251.884 74 251.158 74H248.956C248.207 74 247.667 73.5993 247.667 72.9643C247.667 72.541 247.885 72.1743 248.23 71.906L254.719 66.8013C254.98 66.5934 255.07 66.4252 255.07 66.2362C255.07 66.0472 254.997 65.8866 254.719 65.6712L247.646 60.1413C247.302 59.8729 247.084 59.4817 247.084 59.0584C247.084 58.3988 247.622 58 248.372 58H250.878C251.604 58 251.98 58.2325 252.657 58.7768L259.549 64.2972C260.728 65.2403 260.922 65.7392 260.922 66.1909C260.922 66.5953 260.67 67.0621 259.513 67.9825" fill="#5F5F5F"/>
<path d="M240.482 67.9806L233.906 73.2232C233.227 73.7638 232.853 74 232.127 74H229.924C229.176 74 228.636 73.5993 228.636 72.9643C228.636 72.541 228.854 72.1743 229.198 71.906L235.687 66.8013C235.949 66.5934 236.039 66.4252 236.039 66.2362C236.039 66.0472 235.966 65.8866 235.687 65.6712L228.615 60.1413C228.271 59.8729 228.053 59.4817 228.053 59.0584C228.053 58.3988 228.591 58 229.341 58H231.847C232.573 58 232.949 58.2325 233.626 58.7768L240.518 64.2972C241.697 65.2403 241.891 65.7392 241.891 66.1909C241.891 66.5953 241.639 67.0621 240.482 67.9825" fill="#5F5F5F"/>
<path d="M221.451 67.9806L214.875 73.2232C214.196 73.7638 213.822 74 213.096 74H210.893C210.144 74 209.605 73.5993 209.605 72.9643C209.605 72.541 209.823 72.1743 210.167 71.906L216.656 66.8013C216.918 66.5934 217.008 66.4252 217.008 66.2362C217.008 66.0472 216.935 65.8866 216.656 65.6712L209.584 60.1413C209.24 59.8729 209.022 59.4817 209.022 59.0584C209.022 58.3988 209.559 58 210.31 58H212.815C213.541 58 213.918 58.2325 214.595 58.7768L221.486 64.2972C222.666 65.2403 222.859 65.7392 222.859 66.1909C222.859 66.5953 222.607 67.0621 221.451 67.9825" fill="#5F5F5F"/>
</svg>
