<svg width="24" height="24" viewBox="0 0 24 24" fill="none" xmlns="http://www.w3.org/2000/svg">
<path d="M9.9 0H8.55L7.65 3.45L6.75 0H5.25C5.55 0.9 5.85 1.65 6.15 2.55C6.6 3.75 6.9 4.8 6.9 5.4V9H8.25V5.4L9.9 0ZM13.5 6.75V4.5C13.5 3.75 13.35 3.3 13.05 2.85C12.75 2.4 12.3 2.25 11.7 2.25C11.1 2.25 10.65 2.55 10.35 3C10.05 3.3 9.9 3.75 9.9 4.5V6.9C9.9 7.65 10.05 8.1 10.35 8.4C10.65 8.85 11.1 9 11.7 9C12.3 9 12.75 8.7 13.05 8.25C13.35 8.1 13.5 7.5 13.5 6.75ZM12.3 7.05C12.3 7.65 12.15 7.95 11.7 7.95C11.25 7.95 11.1 7.65 11.1 7.05V4.2C11.1 3.6 11.25 3.3 11.7 3.3C12.15 3.3 12.3 3.6 12.3 4.2V7.05ZM18 9V2.25H16.8V7.35C16.5 7.8 16.35 7.95 16.05 7.95C15.9 7.95 15.75 7.8 15.75 7.65C15.75 7.65 15.75 7.5 15.75 7.2V2.25H14.55V7.5C14.55 7.95 14.55 8.25 14.7 8.55C14.7 8.85 15 9 15.45 9C15.9 9 16.35 8.7 16.8 8.25V9H18Z" fill="white"/>
<path d="M18.6 15.75C18.15 15.75 18 16.05 18 16.65V17.25H19.2V16.65C19.2 16.05 19.05 15.75 18.6 15.75Z" fill="white"/>
<path d="M14.25 15.75C14.1 15.75 13.8 15.9 13.65 16.05V20.1C13.8 20.25 14.1 20.4 14.25 20.4C14.55 20.4 14.7 20.1 14.7 19.5V16.65C14.7 16.05 14.55 15.75 14.25 15.75Z" fill="white"/>
<path d="M21.6 12.45C21.3 11.4 20.4 10.5 19.5 10.5C17.1 10.2 14.55 10.2 12 10.2C9.45001 10.2 7.05001 10.2 4.50001 10.5C3.60001 10.5 2.70001 11.4 2.40001 12.45C2.10001 13.95 2.10001 15.6 2.10001 17.1C2.10001 18.6 2.10001 20.25 2.40001 21.75C2.70001 22.8 3.45001 23.55 4.50001 23.7C7.05001 24 9.45001 24 12 24C14.55 24 16.95 24 19.5 23.7C20.55 23.55 21.45 22.8 21.6 21.75C21.9 20.25 21.9 18.6 21.9 17.1C21.9 15.6 21.9 13.95 21.6 12.45ZM7.80001 13.8H6.30001V21.45H4.95001V13.8H3.60001V12.45H7.80001V13.8ZM11.4 21.45H10.2V20.7C9.75001 21.3 9.30001 21.45 8.85001 21.45C8.40001 21.45 8.25001 21.3 8.10001 21C8.10001 20.85 7.95001 20.55 7.95001 19.95V14.7H9.15001V19.5C9.15001 19.8 9.15001 19.95 9.15001 19.95C9.15001 20.1 9.30001 20.25 9.45001 20.25C9.75001 20.25 9.90001 20.1 10.2 19.65V14.7H11.4V21.45ZM15.9 19.35C15.9 19.95 15.9 20.4 15.75 20.7C15.6 21.15 15.3 21.45 14.85 21.45C14.4 21.45 13.95 21.15 13.65 20.7V21.3H12.45V12.45H13.65V15.3C14.1 14.85 14.4 14.55 14.85 14.55C15.3 14.55 15.6 14.85 15.75 15.3C15.9 15.6 15.9 16.05 15.9 16.65V19.35ZM20.4 18.3H18V19.5C18 20.1 18.15 20.4 18.6 20.4C18.9 20.4 19.05 20.25 19.2 19.95C19.2 19.95 19.2 19.65 19.2 19.2H20.4V19.35C20.4 19.8 20.4 19.95 20.4 20.1C20.4 20.4 20.25 20.55 20.1 20.85C19.8 21.3 19.35 21.6 18.6 21.6C18 21.6 17.55 21.3 17.1 20.85C16.8 20.55 16.65 19.95 16.65 19.35V17.1C16.65 16.35 16.8 15.9 16.95 15.6C17.25 15.15 17.7 14.85 18.45 14.85C19.05 14.85 19.5 15.15 19.8 15.6C20.1 15.9 20.1 16.5 20.1 17.1V18.3H20.4Z" fill="white"/>
</svg>
