<svg width="24" height="24" viewBox="0 0 24 24" fill="none" xmlns="http://www.w3.org/2000/svg">
<g clip-path="url(#clip0_201_1584)">
<path d="M23.5612 21.4452L18.9161 16.7981C22.3918 12.1533 21.4441 5.57034 16.7993 2.09462C12.1545 -1.3811 5.57153 -0.433388 2.09581 4.21139C-1.37991 8.85616 -0.432198 15.4392 4.21258 18.9149C7.94364 21.7069 13.0682 21.7069 16.7993 18.9149L21.4464 23.562C22.0304 24.146 22.9772 24.146 23.5612 23.562C24.1452 22.978 24.1452 22.0312 23.5612 21.4472L23.5612 21.4452ZM10.5447 18.0179C6.41661 18.0179 3.0702 14.6715 3.0702 10.5435C3.0702 6.41542 6.41661 3.06901 10.5447 3.06901C14.6727 3.06901 18.0191 6.41542 18.0191 10.5435C18.0147 14.6697 14.6709 18.0136 10.5447 18.0179Z" fill="black"/>
</g>
<defs>
<clipPath id="clip0_201_1584">
<rect width="24" height="24" fill="white"/>
</clipPath>
</defs>
</svg>
