<svg width="211" height="24" viewBox="0 0 211 24" fill="none" xmlns="http://www.w3.org/2000/svg">
<path d="M16.4466 9.19214L25.8079 1.76674C26.7737 0.999343 27.3078 0.667969 28.3412 0.667969H31.4762C32.5422 0.667969 33.3096 1.23479 33.3096 2.13517C33.3096 2.7347 32.9979 3.25356 32.5095 3.63508L23.2747 10.8686C22.904 11.1629 22.7754 11.4028 22.7754 11.6687C22.7754 11.9347 22.8779 12.1636 23.2747 12.4688L33.3402 20.3019C33.8285 20.6834 34.1403 21.235 34.1403 21.8345C34.1403 22.7676 33.3729 23.3344 32.3068 23.3344H28.7402C27.7068 23.3344 27.1705 23.0052 26.2069 22.2335L16.3965 14.4135C14.7178 13.0771 14.4409 12.3685 14.4409 11.7298C14.4409 11.1586 14.8006 10.4958 16.4466 9.19214Z" fill="#222222"/>
<path d="M12.5661 21.3328C12.5661 22.5995 12.0668 23.332 10.8002 23.332H1.80076C0.534123 23.332 0 22.5319 0 21.2652V2.66685C0 1.40022 0.499242 0.665527 1.489 0.665527H10.4884C12.0319 0.665527 12.5661 1.46562 12.5661 2.73226V21.3328Z" fill="#FF6000"/>
<path d="M60.4192 18.2003C61.6531 18.2003 62.4184 18.6995 62.4184 19.9662V21.5664C62.4184 22.833 61.651 23.3322 60.4192 23.3322H41.4524C39.0521 23.3322 37.0181 22.2989 37.0181 19.5999V4.40029C37.0181 1.66645 39.0521 0.667969 41.4524 0.667969H60.0181C61.252 0.667969 62.0172 1.16721 62.0172 2.43385V3.90105C62.0172 5.13498 61.2498 5.66693 60.0181 5.66693H44.6855C43.8527 5.66693 43.3861 5.96778 43.3861 6.76787V8.40077C43.3861 9.23356 43.8527 9.56712 44.6855 9.56712H59.1177C60.3843 9.56712 61.119 10.0664 61.119 11.333V12.5342C61.119 13.7682 60.3865 14.3001 59.1177 14.3001H44.6855C43.8527 14.3001 43.3861 14.601 43.3861 15.3989V17.0318C43.3861 17.8646 43.8527 18.1981 44.6855 18.1981H60.4192V18.2003Z" fill="#222222"/>
<path d="M90.8511 2.59927C91.4833 1.29993 92.218 0.665527 93.9839 0.665527H99.2161C101.15 0.665527 102.316 1.56591 102.316 3.49965V21.3328C102.316 22.5995 101.817 23.332 100.55 23.332H97.5505C96.2839 23.332 95.717 22.5319 95.717 21.2979V8.06695C95.717 7.46742 95.4511 7.26685 95.1175 7.26685C94.7185 7.26685 94.4853 7.53283 94.1844 8.09965L87.352 21.4985C86.7525 22.6322 86.2511 23.332 85.0847 23.332H82.5187C81.3524 23.332 80.9512 22.6322 80.3844 21.4985L73.7177 8.09965C73.4168 7.53283 73.1836 7.26685 72.7846 7.26685C72.4511 7.26685 72.1851 7.46742 72.1851 8.06695V21.3001C72.1851 22.5995 71.6858 23.3342 70.4192 23.3342H67.3867C66.1201 23.3342 65.5859 22.5341 65.5859 21.2674V3.49965C65.5859 1.56591 66.7523 0.665527 68.686 0.665527H74.0185C75.7844 0.665527 76.5191 1.29993 77.1513 2.59927L83.3167 15.0651C83.6175 15.6319 83.7832 15.7649 84.084 15.7649C84.3849 15.7649 84.5179 15.6319 84.7839 15.0978L90.8511 2.59709V2.59927Z" fill="#222222"/>
<path d="M152.437 23.5C139.469 23.5 137.603 22.2661 137.603 12.2333V11.7667C137.603 1.69905 139.469 0.5 152.437 0.5H153.47C166.435 0.5 168.303 1.69905 168.303 11.7667V12.2333C168.303 22.3009 166.437 23.5 153.47 23.5H152.437ZM153.237 18.2678C161.103 18.2678 161.504 17.7685 161.504 12.0676V11.9019C161.504 6.10284 161.103 5.6363 153.237 5.6363H152.67C144.804 5.6363 144.403 6.10284 144.403 11.9019V12.0676C144.403 17.7663 144.804 18.2678 152.67 18.2678H153.237Z" fill="#222222"/>
<path d="M178.705 12.2989C178.705 17.6314 179.271 17.9977 186.836 17.9977H198.803C200.037 17.9977 200.804 18.4969 200.804 19.7635V20.7642C200.804 22.9988 199.337 23.498 189.57 23.498H187.137C173.839 23.498 171.905 21.9654 171.905 12.3992V11.8651C171.905 2.06553 174.039 0.498047 187.137 0.498047H189.57C199.337 0.498047 200.804 0.864303 200.804 3.23189V4.09738C200.804 5.36402 200.037 5.86326 198.803 5.86326H186.836C179.271 5.86326 178.705 6.3625 178.705 11.9632V12.2967V12.2989Z" fill="#222222"/>
<path d="M122.018 12.1004C126.284 12.1004 127.252 11.6665 127.252 9.46683V8.2329C127.252 6.20105 126.618 5.66693 121.852 5.66693H114.952C114.119 5.66693 113.653 5.96778 113.653 6.76569V21.3331C113.653 22.567 113.151 23.3322 111.887 23.3322H108.754C107.488 23.3322 106.988 22.5648 106.988 21.3331V4.40029C106.988 1.66645 109.02 0.667969 111.42 0.667969H124.42C131.087 0.667969 134.019 1.80162 134.019 7.23441V8.43347C134.019 11.0997 132.72 12.301 130.919 13.1665C130.586 13.3321 130.352 13.4673 130.352 13.766C130.352 14.1322 130.618 14.2325 130.852 14.3001C133.019 14.9999 134.052 16.3995 134.052 20.3324V21.3331C134.052 22.567 133.553 23.3322 132.286 23.3322H129.153C127.887 23.3322 127.387 22.5648 127.387 21.3331V20.9668C127.387 17.2672 127.021 17.0339 119.489 17.0339H117.902C116.668 17.0339 115.901 16.502 115.901 15.2681V13.8684C115.901 12.6018 116.668 12.1026 117.902 12.1026H122.022L122.018 12.1004Z" fill="#222222"/>
<path d="M207.046 5.87391C204.244 5.87391 203.697 5.52945 203.697 3.30139V3.16187C203.697 0.93381 204.244 0.589355 207.046 0.589355H207.251C210.052 0.589355 210.599 0.93381 210.599 3.16187V3.30139C210.599 5.52945 210.052 5.87391 207.251 5.87391H207.046ZM207.251 5.28746C209.645 5.28746 209.924 5.03239 209.924 3.30139V3.16187C209.924 1.43087 209.645 1.1758 207.251 1.1758H207.046C204.652 1.1758 204.373 1.43087 204.373 3.16187V3.30139C204.373 5.03239 204.654 5.28746 207.046 5.28746H207.251ZM207.709 1.67068C208.753 1.67068 209.008 1.87561 209.008 2.63864V2.68879C209.008 3.0703 208.906 3.24907 208.613 3.40168C208.563 3.42784 208.524 3.45182 208.524 3.50414C208.524 3.55646 208.563 3.58045 208.6 3.59353C208.906 3.69599 209.008 3.86168 209.008 4.35656V4.49609C209.008 4.66177 208.932 4.77514 208.753 4.77514H208.295C208.116 4.77514 208.053 4.66177 208.053 4.49609V4.44594C208.053 4.02518 207.964 3.9358 207.201 3.9358H206.614C206.488 3.9358 206.422 3.97504 206.422 4.08841V4.49609C206.422 4.66177 206.359 4.77514 206.167 4.77514H205.683C205.505 4.77514 205.428 4.66177 205.428 4.49609V2.20699C205.428 1.81239 205.72 1.67286 206.052 1.67286H207.706L207.709 1.67068ZM207.364 3.19893C207.938 3.19893 208.04 3.14879 208.04 2.83049V2.78035C208.04 2.46206 207.938 2.39883 207.364 2.39883H206.612C206.486 2.39883 206.42 2.43808 206.42 2.55144V3.03542C206.42 3.15097 206.483 3.20111 206.612 3.20111H207.364V3.19893Z" fill="#222222"/>
</svg>
